<svg height="100%" viewBox="0 0 64 80" xmlns="http://www.w3.org/2000/svg" xmlns:xlink="http://www.w3.org/1999/xlink"><defs><path id="a" d="M0 0h12.384v20.982H0z"/><path id="c" d="M0 0h12.745v21.705H0z"/><path id="e" d="M0 0h17.295v21.705H0z"/></defs><g fill="none" fill-rule="evenodd"><g transform="translate(0 .361)"><mask id="b" fill="#fff"><use xlink:href="#a"/></mask><path d="M2.337 18.812h2.338c2.616 0 5.37-.64 5.37-3.84 0-3.256-3.116-3.729-5.676-3.729H2.337v7.569Zm0-9.573h.89c2.644 0 4.899-.307 4.899-3.562 0-3.173-2.003-3.506-4.87-3.506h-.919v7.068ZM0 0h3.45c3.813 0 7.013 1.391 7.013 5.677 0 1.698-.64 3.144-2.059 4.09 2.504.613 3.98 2.867 3.98 5.371 0 4.174-3.368 5.844-7.514 5.844H0V0Z" fill="#412211" mask="url(#b)"/></g><path d="M22.65 10.852c0 4.73 3.84 8.682 8.6 8.682 4.758 0 8.598-3.951 8.598-8.682 0-4.758-3.784-8.682-8.599-8.682-4.814 0-8.598 3.924-8.598 8.682m19.535.027c0 6.04-4.954 10.826-10.937 10.826-5.982 0-10.936-4.786-10.936-10.826C20.313 4.87 25.267 0 31.249 0c5.983 0 10.937 4.87 10.937 10.88M53.26 10.073h.723c2.644 0 5.315-.5 5.315-3.757 0-3.45-2.532-3.784-5.343-3.784h-.695v7.541Zm0 11.27h-2.338V.36h3.033c3.98 0 7.68 1.057 7.68 5.788 0 3.229-2.03 5.51-5.259 5.789l6.679 9.405h-2.866l-6.345-9.21h-.584v9.21ZM26.49 41.435c.055 2.838-.25 5.177-2.172 7.402-1.92 2.227-4.841 3.507-7.763 3.507-5.9 0-10.797-4.898-10.797-10.797 0-6.01 4.897-10.908 10.936-10.908 3.673 0 6.651 1.642 8.877 4.535l-1.698 1.586c-1.753-2.476-4.118-3.952-7.207-3.952-4.787 0-8.57 4.036-8.57 8.767 0 2.225.89 4.341 2.448 5.927 1.53 1.53 3.757 2.671 5.956 2.671 3.645 0 7.485-2.67 7.485-6.567H17.75v-2.17h8.738ZM37.174 41.49c0 4.732 3.84 8.683 8.599 8.683 4.758 0 8.598-3.951 8.598-8.682 0-4.758-3.784-8.682-8.598-8.682-4.815 0-8.6 3.924-8.6 8.682m19.536.027c0 6.04-4.954 10.826-10.936 10.826-5.983 0-10.937-4.786-10.937-10.826 0-6.01 4.954-10.88 10.937-10.88 5.982 0 10.936 4.87 10.936 10.88" fill="#412211"/><g transform="translate(0 58.295)"><mask id="d" fill="#fff"><use xlink:href="#c"/></mask><path d="M5.955 9.238c2.226-.083 4.146-.751 4.146-3.395 0-2.225-1.475-3.673-3.673-3.673-2.087 0-3.256 1.392-3.45 3.367H.668C1.002 2.197 3.033 0 6.484 0c3.367 0 5.955 2.282 5.955 5.732 0 1.864-1.002 3.729-2.7 4.592 2.032.918 3.006 3.005 3.006 5.147 0 3.675-2.922 6.235-6.512 6.235-3.395 0-6.177-2.31-6.233-5.817h2.282c.11 2.143 1.92 3.645 4.034 3.645 2.338 0 4.092-1.891 4.092-4.201 0-2.672-1.893-4.007-4.453-3.924V9.24Z" fill="#412211" mask="url(#d)"/></g><path d="M53.343 64.083c0 2.031 1.642 3.673 3.645 3.673 2.004 0 3.646-1.642 3.646-3.673 0-2.004-1.642-3.618-3.646-3.618-2.003 0-3.645 1.614-3.645 3.618m-.417 9.712a4.026 4.026 0 0 0 4.062 4.034c2.283 0 4.063-1.809 4.063-4.034a4.026 4.026 0 0 0-4.063-4.036 4.026 4.026 0 0 0-4.062 4.036m9.935-9.657c0 1.837-.947 3.673-2.561 4.591 1.976.891 3.089 2.895 3.089 5.037 0 3.618-2.782 6.234-6.4 6.234-3.618 0-6.4-2.616-6.4-6.234 0-2.142 1.112-4.146 3.088-5.037-1.614-.918-2.56-2.754-2.56-4.591 0-3.366 2.588-5.843 5.871-5.843 3.284 0 5.873 2.477 5.873 5.843" fill="#412211"/><g transform="translate(22.553 58.295)"><mask id="f" fill="#fff"><use xlink:href="#e"/></mask><path d="M8.648 0A8.648 8.648 0 0 0 0 8.647v13.059h17.295V8.646A8.647 8.647 0 0 0 8.648 0" fill="#AB6725" mask="url(#f)"/></g></g></svg>
