<svg height="100%" viewBox="0 0 156 18" xmlns="http://www.w3.org/2000/svg" xmlns:xlink="http://www.w3.org/1999/xlink"><defs><path id="a" d="M0 0h9.805v16.454H0z"/><path id="c" d="M0 0h17.098v17.071H0z"/><path id="e" d="M0 0h17.098v17.071H0z"/><path id="g" d="M0 0h10.347v16.997H0z"/><path id="i" d="M0 0h14.068v17.679H0z"/></defs><g fill="none" fill-rule="evenodd"><g transform="translate(0 1.225)"><mask id="b" fill="#fff"><use xlink:href="#a"/></mask><path d="M2.513 14.086H4.04c.715 0 1.848-.123 2.489-.641.492-.395.813-1.086.813-1.826 0-.666-.247-1.307-.665-1.727-.69-.666-1.7-.74-2.587-.74H2.513v4.934Zm0-7.006h.764c.616 0 1.453-.074 2.045-.641.566-.543.64-1.308.64-1.875 0-.494-.074-1.086-.591-1.579-.567-.543-1.281-.617-1.996-.617h-.862V7.08ZM2.488 0c2.12 0 3.45.271 4.533 1.283.887.839 1.306 1.9 1.306 3.256 0 .642-.098 1.308-.492 1.949-.37.641-.863.962-1.232 1.135.295.074 1.305.345 2.118 1.184.887.937 1.084 2.072 1.084 3.084 0 1.184-.295 2.121-1.084 2.96-1.305 1.381-3.35 1.603-4.607 1.603H0V0h2.488Z" fill="#49301D" mask="url(#b)"/></g><g transform="translate(15.62 .929)"><path d="M14.585 8.536c0-3.652-2.513-6.217-6.036-6.217-3.523 0-6.036 2.565-6.036 6.217 0 3.65 2.513 6.216 6.036 6.216 3.523 0 6.036-2.565 6.036-6.216m2.513 0c0 4.835-3.622 8.535-8.55 8.535-4.926 0-8.548-3.7-8.548-8.535C0 3.7 3.622 0 8.549 0s8.549 3.7 8.549 8.536" fill="#49301D" mask="url(#d)"/></g><path d="M42.571 8.774h.788c.69 0 3.499-.074 3.499-2.69 0-2.318-2.193-2.54-3.425-2.54h-.862v5.23Zm.419-7.549c1.995 0 3.277.247 4.336.962 1.798 1.209 1.946 3.158 1.946 3.873 0 2.368-1.453 4.095-3.646 4.589l5.124 7.03h-3.03l-4.706-6.734h-.443v6.734h-2.513V1.225h2.932ZM65.902 9.12h6.775v.123c0 2.812-.838 5.106-2.44 6.66-1.7 1.653-3.72 2.097-5.592 2.097-2.39 0-4.09-.69-5.592-2.245-1.602-1.653-2.44-3.848-2.44-6.216 0-2.566 1.035-4.786 2.39-6.143C60.408 1.966 62.65.929 65.187.929c1.478 0 3.006.32 4.287 1.036 1.355.765 2.193 1.727 2.66 2.467L70.14 5.838c-.493-.69-1.232-1.43-2.02-1.875-.912-.542-1.897-.715-2.907-.715-2.144 0-3.523.888-4.336 1.702-1.084 1.086-1.75 2.837-1.75 4.613 0 1.653.616 3.306 1.7 4.465 1.134 1.21 2.538 1.653 4.115 1.653 1.429 0 2.611-.42 3.67-1.455.912-.888 1.282-1.85 1.38-2.788h-4.09V9.119Z" fill="#49301D"/><g transform="translate(79.23 .929)"><mask id="f" fill="#fff"><use xlink:href="#e"/></mask><path d="M14.585 8.536c0-3.652-2.513-6.217-6.036-6.217-3.523 0-6.036 2.565-6.036 6.217 0 3.65 2.513 6.216 6.036 6.216 3.523 0 6.036-2.565 6.036-6.216m2.513 0c0 4.835-3.622 8.535-8.55 8.535-4.926 0-8.548-3.7-8.548-8.535C0 3.7 3.622 0 8.549 0s8.549 3.7 8.549 8.536" fill="#49301D" mask="url(#f)"/></g><path d="M127.023 5.419c.074-1.332.641-2.467 1.405-3.207 1.133-1.086 2.513-1.258 3.597-1.258 1.256 0 2.488.246 3.547 1.356.863.889 1.183 1.95 1.183 3.133 0 .79-.148 1.48-.567 2.171a3.82 3.82 0 0 1-1.478 1.382 3.38 3.38 0 0 1 1.626 1.307c.468.691.69 1.604.69 2.541 0 1.628-.616 2.887-1.404 3.676-1.183 1.184-2.735 1.43-4.016 1.43-1.257 0-2.612-.246-3.671-1.38-.74-.79-1.281-2.098-1.404-3.356h2.414c.123.74.468 1.382.887 1.776.345.321.96.74 1.996.74.763 0 1.478-.296 1.921-.69.468-.444.862-1.21.862-2.32 0-.542-.098-1.331-.739-1.948-.714-.69-1.601-.74-2.118-.74h-.493V7.91h.345c1.06 0 1.724-.345 2.094-.715.394-.395.64-1.011.64-1.752 0-.863-.37-1.381-.64-1.652-.567-.543-1.257-.617-1.75-.617-.59 0-1.28.099-1.822.666-.567.592-.69 1.48-.69 1.579h-2.415Z" fill="#49301D"/><g transform="translate(145.353 .954)"><mask id="h" fill="#fff"><use xlink:href="#g"/></mask><path d="M3.375 2.886c-.419.42-.69 1.086-.69 1.826 0 .765.296 1.357.666 1.727.443.468 1.182.74 1.823.74.64 0 1.38-.272 1.823-.74.37-.37.665-.962.665-1.727 0-.74-.271-1.406-.69-1.826-.419-.394-1.035-.666-1.798-.666-.764 0-1.38.272-1.799.666m-.148 7.13c-.492.493-.763 1.282-.763 1.998 0 .641.246 1.381.739 1.924.345.395.96.839 1.97.839s1.627-.444 1.972-.839a2.95 2.95 0 0 0 .739-1.924c0-.716-.271-1.505-.764-1.998-.493-.494-1.232-.765-1.946-.765-.715 0-1.454.271-1.947.765m6.381-.518c.616.814.74 1.726.74 2.466 0 1.678-.641 2.813-1.306 3.503-.764.815-1.996 1.53-3.868 1.53-1.873 0-3.105-.715-3.868-1.53C.64 14.777 0 13.642 0 11.964c0-.74.123-1.652.739-2.466.37-.518.96-1.012 1.725-1.333A3.341 3.341 0 0 1 1.01 6.932C.591 6.266.42 5.427.42 4.687c0-1.307.468-2.54 1.38-3.429C2.315.765 3.374 0 5.173 0c1.798 0 2.858.765 3.375 1.258.911.888 1.38 2.122 1.38 3.43 0 .74-.173 1.578-.592 2.244a3.341 3.341 0 0 1-1.453 1.233c.763.321 1.355.815 1.724 1.333" fill="#49301D" mask="url(#h)"/></g><g transform="translate(104.283)"><mask id="j" fill="#fff"><use xlink:href="#i"/></mask><path d="M7.034 0C3.15 0 0 3.153 0 7.043V17.68h14.068V7.043C14.068 3.153 10.92 0 7.034 0" fill="#976033" mask="url(#j)"/></g></g></svg>
