<svg xmlns="http://www.w3.org/2000/svg" xmlns:xlink="http://www.w3.org/1999/xlink" width="63" height="80" viewBox="0 0 63 80"><defs><polygon id="a" points="0 0 63 0 63 80 0 80"/><polygon id="c" points="0 0 5.665 0 5.665 9.442 0 9.442"/><polygon id="e" points="0 0 5.831 0 5.831 9.767 0 9.767"/><polygon id="g" points="0 0 8 0 8 10 0 10"/></defs><g fill="none" fill-rule="evenodd"><mask id="b" fill="#fff"><use xlink:href="#a"/></mask><path fill="#F2DCCB" d="M62.9439058,29.591165 C64.2779542,52.6504241 41.4469967,73.058409 33.8879871,79.1574172 C32.4911472,80.2840291 30.5026329,80.2793588 29.1057931,79.1523877 C21.7541745,73.2200721 0,53.7860172 0,31.5390252 C0,14.1207291 14.1029512,0 31.4997605,0 C48.2367218,0 61.9762005,12.8619127 62.9439058,29.591165" mask="url(#b)"/><g transform="translate(17 16)"><g transform="translate(0 .162)"><mask id="d" fill="#fff"><use xlink:href="#c"/></mask><path fill="#412211" d="M1.06928059,8.46538458 L2.13868293,8.46538458 C3.3355207,8.46538458 4.59567033,8.1771639 4.59567033,6.73725811 C4.59567033,5.27220287 3.16993582,5.05943054 1.99866631,5.05943054 L1.06928059,5.05943054 L1.06928059,8.46538458 Z M1.06928059,4.15764314 L1.47674926,4.15764314 C2.68616823,4.15764314 3.71742112,4.01952076 3.71742112,2.55446552 C3.71742112,1.12693486 2.80102245,0.976836559 1.48973631,0.976836559 L1.06928059,0.976836559 L1.06928059,4.15764314 Z M-0.000121753588,0 L1.57861643,0 C3.3229395,0 4.78682346,0.625941857 4.78682346,2.55446552 C4.78682346,3.31852976 4.49380316,3.96962106 3.84485654,4.39556491 C4.9905578,4.67101127 5.66547852,5.6853724 5.66547852,6.81230726 C5.66547852,8.69053203 4.12488979,9.44182194 2.2279689,9.44182194 L-0.000121753588,9.44182194 L-0.000121753588,0 Z" mask="url(#d)"/></g><path fill="#412211" d="M10.3624884 4.8833844C10.3624884 7.01230527 12.1193927 8.79033143 14.2963468 8.79033143 16.473301 8.79033143 18.2302052 7.01230527 18.2302052 4.8833844 18.2302052 2.7420884 16.4988692.976437361 14.2963468.976437361 12.0938244.976437361 10.3624884 2.7420884 10.3624884 4.8833844M19.2996076 4.89575952C19.2996076 7.61349687 17.0333675 9.76716799 14.2963468 9.76716799 11.5593262 9.76716799 9.29308608 7.61349687 9.29308608 4.89575952 9.29308608 2.1911957 11.5593262 0 14.2963468 0 17.0333675 0 19.2996076 2.1911957 19.2996076 4.89575952M24.3659367 4.53288889 24.6971065 4.53288889C25.9065254 4.53288889 27.1285256 4.30774144 27.1285256 2.842287 27.1285256 1.28940829 25.9702431 1.13930999 24.6841194 1.13930999L24.3659367 1.13930999 24.3659367 4.53288889ZM24.3659367 9.60429537 23.2965344 9.60429537 23.2965344.162473428 24.6841194.162473428C26.5047414.162473428 28.1979279.638316983 28.1979279 2.76723785 28.1979279 4.21991796 27.2685422 5.24665423 25.7916712 5.37200228L28.8472804 9.60429537 27.5359943 9.60429537 24.6333888 5.45942655 24.3659367 5.45942655 24.3659367 9.60429537ZM12.1186622 18.6459616C12.1442304 19.9229948 12.0042138 20.9752797 11.1255587 21.9768665 10.2473095 22.9788525 8.91045513 23.5548947 7.57400659 23.5548947 4.87472955 23.5548947 2.6340577 21.3505254 2.6340577 18.6962605 2.6340577 15.9912975 4.87472955 13.7873275 7.63731845 13.7873275 9.31792381 13.7873275 10.6803465 14.5262423 11.6986123 15.8284249L10.9218244 16.5421902C10.1198741 15.4276305 9.03789056 14.7637648 7.62473725 14.7637648 5.43479606 14.7637648 3.70346004 16.5797148 3.70346004 18.7086356 3.70346004 19.7102225 4.11092871 20.6623088 4.82399889 21.3760741 5.52408202 22.0642908 6.5427537 22.5780581 7.54843834 22.5780581 9.21605664 22.5780581 10.9729609 21.3760741 10.9729609 19.6227982L8.12108604 19.6227982 8.12108604 18.6459616 12.1186622 18.6459616ZM17.0068252 18.6709115C17.0068252 20.7998323 18.7637295 22.5778585 20.9406836 22.5778585 23.1176378 22.5778585 24.874542 20.7998323 24.874542 18.6709115 24.874542 16.5300147 23.143206 14.7639644 20.9406836 14.7639644 18.7381612 14.7639644 17.0068252 16.5300147 17.0068252 18.6709115M25.9439444 18.6832866C25.9439444 21.4010239 23.6777043 23.5546951 20.9406836 23.5546951 18.203663 23.5546951 15.9374229 21.4010239 15.9374229 18.6832866 15.9374229 15.9787228 18.203663 13.7875271 20.9406836 13.7875271 23.6777043 13.7875271 25.9439444 15.9787228 25.9439444 18.6832866"/><g transform="translate(0 26.233)"><mask id="f" fill="#fff"><use xlink:href="#e"/></mask><path fill="#412211" d="M2.72443944,4.15724394 C3.74270528,4.11971936 4.62136034,3.81912356 4.62136034,2.62951468 C4.62136034,1.62792786 3.94643962,0.976437361 2.94075498,0.976437361 C1.98580101,0.976437361 1.45130276,1.60277842 1.36242264,2.4917915 L0.305601505,2.4917915 C0.458199334,0.988812487 1.38758505,0 2.96632324,0 C4.50691197,0 5.69076268,1.02673626 5.69076268,2.57961497 C5.69076268,3.41832916 5.2321575,4.25744254 4.45577546,4.64586182 C5.38516118,5.05903135 5.83077931,5.99794413 5.83077931,6.96200637 C5.83077931,8.61548288 4.49392492,9.76756719 2.85146902,9.76756719 C1.29829909,9.76756719 0.0255682534,8.72805661 0,7.15002844 L1.04383409,7.15002844 C1.09456475,8.11448988 1.9220833,8.79033143 2.88961848,8.79033143 C3.95902082,8.79033143 4.76137696,7.93924212 4.76137696,6.89973154 C4.76137696,5.69734833 3.89570896,5.09655592 2.72443944,5.1340805 L2.72443944,4.15724394 Z" mask="url(#f)"/></g><path fill="#412211" d="M24.4042079,28.8371972 C24.4042079,29.7513598 25.1554276,30.4902745 26.0718262,30.4902745 C26.9886307,30.4902745 27.7398504,29.7513598 27.7398504,28.8371972 C27.7398504,27.9354098 26.9886307,27.2092694 26.0718262,27.2092694 C25.1554276,27.2092694 24.4042079,27.9354098 24.4042079,28.8371972 M24.2134606,33.2076127 C24.2134606,34.2091995 25.0279921,35.0231634 26.0718262,35.0231634 C27.1160662,35.0231634 27.9305977,34.2091995 27.9305977,33.2076127 C27.9305977,32.2056267 27.1160662,31.3916628 26.0718262,31.3916628 C25.0279921,31.3916628 24.2134606,32.2056267 24.2134606,33.2076127 M28.7585221,28.8619475 C28.7585221,29.6886857 28.3254851,30.5150248 27.5868467,30.9281943 C28.4906642,31.3289887 29,32.2307761 29,33.1948384 C29,34.8227662 27.7272692,36 26.0718262,36 C24.4167891,36 23.1440583,34.8227662 23.1440583,33.1948384 C23.1440583,32.2307761 23.6529883,31.3289887 24.5568057,30.9281943 C23.8185732,30.5150248 23.3859421,29.6886857 23.3859421,28.8619475 C23.3859421,27.3473917 24.5697928,26.232832 26.0718262,26.232832 C27.5742655,26.232832 28.7585221,27.3473917 28.7585221,28.8619475"/><g transform="translate(10 26)"><mask id="h" fill="#fff"><use xlink:href="#g"/></mask><path fill="#AB6725" d="M4,0 L4,0 C1.79113664,0 0,1.78359777 0,3.98366806 L0,10.0002452 L8,10.0002452 L8,3.98366806 C8,1.78359777 6.2092737,0 4,0" mask="url(#h)"/></g></g></g></svg>