<svg xmlns="http://www.w3.org/2000/svg" height="100%" viewBox="0 0 27 27"><path fill="none" stroke="#AB6725" stroke-width="1.5" d="M1174.35232,7628.67484 L1171.23151,7625.57518 C1170.54473,7624.89305 1169.43713,7625.00674 1168.85134,7625.77915 C1168.17466,7626.67527 1167.07716,7627.48446 1165.44437,7626.92271 C1164.00011,7626.42784 1161.66707,7624.41155 1160.34737,7623.19776 C1159.12867,7621.887 1157.09863,7619.56977 1156.60038,7618.1353 C1156.03479,7616.51357 1156.84614,7615.42351 1157.74501,7614.75141 C1158.52606,7614.17294 1158.64052,7613.0695 1157.95374,7612.38737 L1154.83293,7609.2877 C1154.18991,7608.6457 1153.16984,7608.53535 1152.42246,7609.06032 C1151.24416,7609.88958 1149.74603,7611.42771 1149.74603,7613.87869 C1149.74603,7623.37832 1160.12181,7633.72727 1169.73002,7633.72727 C1172.19772,7633.72727 1173.74634,7632.2393 1174.58125,7631.06898 C1175.11317,7630.33001 1174.99871,7629.31685 1174.35232,7628.67484" transform="translate(-1149 -7608)"/></svg>