<svg xmlns="http://www.w3.org/2000/svg" width="100%" viewBox="0 0 29 34"><g fill="none" fill-rule="evenodd" stroke="#412211" stroke-linecap="round" stroke-linejoin="round" stroke-width="1.3" transform="translate(1 1)"><path d="M19.9207679,8.03926706 C19.9207679,11.1573997 18.415212,13.8406906 16.2437656,15.0931961 L16.2437656,17.9466864 L17.9562674,18.2279951 C22.9511882,18.2279951 27,22.358738 27,27.4536071 L27,32 L0,32 L0,27.4536071 C0,22.358738 4.04881179,18.2279951 9.04373258,18.2279951 L10.7562344,17.9466864 L10.7562344,15.0931961 C8.58429294,13.8406906 7.07923207,11.1573997 7.07923207,8.03926706 L7.07923207,5.6923344 C7.07923207,2.54844463 9.57743509,0 12.6593443,0 L14.3094653,0 C17.3705809,0 19.8603675,2.51561686 19.8890824,5.63879989 L19.9207679,8.03926706 Z"/><path d="M9.04353455,18.2280456 C9.04353455,18.2280456 9.5371351,21.4072884 13.499802,21.4072884 C17.4629639,21.4072884 17.9565645,18.2280456 17.9565645,18.2280456"/><polyline points="7.079 7.216 15.24 3.099 19.91 7.216"/></g></svg>